<svg width="24" height="24" viewBox="0 0 24 24" fill="none" xmlns="http://www.w3.org/2000/svg">
<g id="uil:whatsapp-alt" clip-path="url(#clip0_401_25)">
<path id="Vector" d="M23.6715 5.46C23.6582 4.94229 23.6187 4.42561 23.5531 3.912C23.4648 3.46215 23.3175 3.02629 23.1152 2.616C22.9037 2.17093 22.6196 1.76523 22.2749 1.416C21.927 1.07065 21.5276 0.783109 21.0913 0.564C20.6861 0.362933 20.2562 0.217648 19.813 0.132C19.3113 0.0557992 18.8053 0.0117121 18.2981 0H5.38527C4.87464 0.0134837 4.36503 0.0535363 3.85845 0.12C3.41476 0.209602 2.98487 0.358924 2.58019 0.564C2.14121 0.778484 1.74107 1.06653 1.39662 1.416C1.05599 1.76869 0.77239 2.17367 0.55628 2.616C0.357965 3.02684 0.214669 3.46269 0.130193 3.912C0.0550355 4.42072 0.0115518 4.93374 0 5.448V18.54C0.0132991 19.0577 0.0528035 19.5744 0.118357 20.088C0.206733 20.5379 0.354011 20.9737 0.55628 21.384C0.767829 21.8291 1.05193 22.2348 1.39662 22.584C1.74448 22.9294 2.14392 23.2169 2.58019 23.436C2.98541 23.6371 3.4153 23.7824 3.85845 23.868C4.36021 23.9442 4.86621 23.9883 5.37343 24H18.2862C18.7969 23.9865 19.3065 23.9465 19.813 23.88C20.2567 23.7904 20.6866 23.6411 21.0913 23.436C21.5303 23.2215 21.9304 22.9335 22.2749 22.584C22.6155 22.2313 22.8991 21.8263 23.1152 21.384C23.3135 20.9732 23.4568 20.5373 23.5413 20.088C23.6165 19.5793 23.6599 19.0663 23.6715 18.552V5.46ZM12.108 20.4C10.6866 20.3929 9.29004 20.0214 8.04831 19.32L3.55072 20.52L4.7343 16.056C3.97103 14.7557 3.56254 13.2731 3.55072 11.76C3.55544 10.0595 4.05635 8.39846 4.99038 6.98605C5.9244 5.57364 7.24977 4.47304 8.79956 3.82286C10.3493 3.17268 12.0542 3.002 13.6995 3.33233C15.3448 3.66265 16.8569 4.47919 18.0453 5.67912C19.2337 6.87905 20.0454 8.40871 20.378 10.0754C20.7107 11.7421 20.5494 13.4714 19.9146 15.0454C19.2798 16.6194 18.1997 17.9677 16.8106 18.9205C15.4214 19.8734 13.7852 20.3882 12.108 20.4ZM12.108 4.644C10.8532 4.65856 9.62456 5.00998 8.54725 5.66249C7.46995 6.31499 6.58243 7.24528 5.97504 8.35862C5.36765 9.47197 5.06209 10.7286 5.08947 12.0006C5.11685 13.2726 5.4762 14.5146 6.13092 15.6L6.29662 15.876L5.58647 18.504L8.28502 17.76L8.54541 17.916C9.62196 18.5589 10.8468 18.9025 12.0961 18.912C13.9796 18.912 15.7858 18.1534 17.1176 16.8032C18.4494 15.4529 19.1976 13.6216 19.1976 11.712C19.1976 9.80244 18.4494 7.97109 17.1176 6.62083C15.7858 5.27057 13.9796 4.512 12.0961 4.512L12.108 4.644ZM16.2505 14.868C16.0955 15.1302 15.8879 15.3564 15.6412 15.5321C15.3945 15.7078 15.1142 15.8291 14.8184 15.888C14.3763 15.9699 13.9213 15.9411 13.4928 15.804C13.0896 15.6762 12.6943 15.5239 12.3092 15.348C10.846 14.6036 9.59813 13.4873 8.68744 12.108C8.19257 11.469 7.8923 10.6975 7.82343 9.888C7.81638 9.55175 7.87912 9.21774 8.00758 8.90765C8.13603 8.59756 8.32733 8.31831 8.56908 8.088C8.64029 8.00615 8.72765 7.94035 8.82551 7.89488C8.92337 7.8494 9.02956 7.82526 9.1372 7.824H9.4686C9.59879 7.824 9.77633 7.824 9.94203 8.196C10.1077 8.568 10.5457 9.684 10.6048 9.792C10.6339 9.84957 10.6491 9.91332 10.6491 9.978C10.6491 10.0427 10.6339 10.1064 10.6048 10.164C10.5525 10.2944 10.4806 10.4158 10.3918 10.524C10.2853 10.656 10.1669 10.812 10.0722 10.908C9.97754 11.004 9.85918 11.124 9.97754 11.34C10.2996 11.891 10.6982 12.3922 11.1611 12.828C11.6652 13.2796 12.2416 13.6408 12.8655 13.896C13.0785 14.004 13.2087 13.992 13.3271 13.896C13.4454 13.8 13.8597 13.272 14.0017 13.056C14.1437 12.84 14.2857 12.876 14.4751 12.948C14.6645 13.02 15.7179 13.536 15.9309 13.644C16.144 13.752 16.2742 13.8 16.3333 13.896C16.3847 14.2101 16.3561 14.5322 16.2505 14.832V14.868Z" fill="#35FF95"/>
</g>
<defs>
<clipPath id="clip0_401_25">
<rect width="24" height="24" fill="white"/>
</clipPath>
</defs>
</svg>
